<?xml version="1.0" encoding="UTF-8"?>
<svg id="Logo" xmlns="http://www.w3.org/2000/svg" version="1.1" xmlns:xlink="http://www.w3.org/1999/xlink" viewBox="0 0 521.333 102">
  <defs>
    <style>
      .cls-1 {
        fill: url(#linear-gradient);
      }

      .cls-1, .cls-2, .cls-3, .cls-4, .cls-5 {
        stroke-width: 0px;
      }

      .cls-2 {
        fill: #000;
      }

      .cls-3 {
        fill: url(#linear-gradient-2);
      }

      .cls-4 {
        fill: url(#linear-gradient-3);
      }

      .cls-5 {
        fill: url(#linear-gradient-4);
      }
    </style>
    <linearGradient id="linear-gradient" x1="395.297" y1="24.449" x2="395.297" y2="91.056" gradientUnits="userSpaceOnUse">
      <stop offset="0" stop-color="#c3aaff"/>
      <stop offset="1" stop-color="#9b51ff"/>
    </linearGradient>
    <linearGradient id="linear-gradient-2" x1="16.809" y1="24.925" x2="17.803" y2="74.211" xlink:href="#linear-gradient"/>
    <linearGradient id="linear-gradient-3" x1="53.184" y1="12.606" x2="53.546" y2="92.049" xlink:href="#linear-gradient"/>
    <linearGradient id="linear-gradient-4" x1="94.909" y1="2.711" x2="93.969" y2="100.069" xlink:href="#linear-gradient"/>
  </defs>
  <g id="My">
    <g>
      <path class="cls-2" d="M211.403,20.607v58.814h-14.327v-35.272l-13.153,35.272h-11.562l-13.237-35.355v35.355h-14.327V20.607h16.924l16.505,40.718,16.337-40.718h16.84Z"/>
      <path class="cls-2" d="M269.464,32.672l-29.323,68.952h-15.416l10.724-23.794-19.019-45.158h16.002l10.808,29.24,10.724-29.24h15.499Z"/>
    </g>
  </g>
  <g id="Wayv">
    <path class="cls-1" d="M355.585,20.607l-15.332,58.814h-17.343l-9.384-38.707-9.718,38.707h-17.343l-14.913-58.814h15.332l8.462,42.812,10.473-42.812h15.75l10.054,42.812,8.546-42.812h15.416ZM362.664,43.312c1.814-3.63,4.286-6.422,7.415-8.378,3.127-1.954,6.619-2.932,10.473-2.932,3.295,0,6.186.67,8.671,2.011,2.485,1.34,4.398,3.1,5.739,5.278v-6.619h14.326v46.75h-14.326v-6.619c-1.396,2.179-3.338,3.938-5.822,5.278-2.486,1.341-5.377,2.011-8.672,2.011-3.799,0-7.262-.99-10.389-2.974-3.129-1.982-5.601-4.804-7.415-8.462-1.815-3.658-2.723-7.889-2.723-12.693s.907-9.019,2.723-12.65ZM391.987,47.585c-1.982-2.065-4.398-3.1-7.246-3.1s-5.266,1.02-7.247,3.058c-1.983,2.04-2.975,4.846-2.975,8.419s.991,6.409,2.975,8.504c1.981,2.095,4.398,3.142,7.247,3.142s5.264-1.032,7.246-3.1c1.982-2.065,2.975-4.887,2.975-8.462s-.992-6.395-2.975-8.462ZM467.431,32.672l-29.323,68.952h-15.415l10.724-23.794-19.019-45.158h16.002l10.809,29.24,10.724-29.24h15.499ZM493.656,66.017l10.138-33.345h15.248l-16.589,46.75h-17.678l-16.589-46.75h15.332l10.138,33.345Z"/>
  </g>
  <g>
    <g id="Shape_2" data-name="Shape 2">
      <path class="cls-3" d="M25.848,22.575h0c-3.423,0-6.197,2.776-6.197,6.2v42.254c0,3.424,2.775,6.2,6.197,6.2h0c3.423,0,6.197-2.776,6.197-6.2V28.775c0-3.424-2.775-6.2-6.197-6.2ZM8.485,37.771c-3.423,0-6.197,2.776-6.197,6.2v12.582c0,3.424,2.775,6.2,6.197,6.2s6.197-2.776,6.197-6.2v-12.582c0-3.424-2.775-6.2-6.197-6.2Z"/>
    </g>
    <g id="Shape_2_copy_2" data-name="Shape 2 copy 2">
      <path class="cls-4" d="M44.725,10.095h0c-3.423,0-6.197,2.776-6.197,6.2v70.814c0,3.424,2.775,6.2,6.197,6.2h0c3.423,0,6.197-2.776,6.197-6.2V16.295c0-3.424-2.775-6.2-6.197-6.2ZM62.088,29.611c-3.423,0-6.197,2.776-6.197,6.2v29.142c0,3.424,2.775,6.2,6.197,6.2s6.197-2.776,6.197-6.2v-29.142c0-3.424-2.775-6.2-6.197-6.2Z"/>
    </g>
    <g id="Shape_2_copy" data-name="Shape 2 copy">
      <path class="cls-5" d="M118.952,46.484c-.573-16.76-9.104-32.594-24.021-44.586l-.168-.135c-2.391-1.814-6.185-1.844-8.672-.096-2.581,1.814-2.804,4.883-.497,6.841l.093.075c.043.035.085.069.128.102,12.779,10.285,20.085,23.86,20.577,38.228.381,11.126-3.325,22.085-10.717,31.691-2.148,2.794-4.62,5.481-7.348,7.987-.961.791-2.556.896-3.646.236-1.078-.652-1.322-1.847-.574-2.747,2.74-2.503,5.209-5.209,7.339-8.044,6.61-8.805,9.92-18.812,9.573-28.939-.461-13.493-7.377-26.208-19.474-35.804l-.613-.479c-.6-.441-1.238-.837-1.906-1.188-5.842-3.068-11.816,3.944-6.962,8.164.04.03.098.074.154.121l.045.037c10.063,7.905,15.815,18.409,16.198,29.576.374,10.94-4.461,21.642-13.616,30.135l-.899.855c-1.572,1.642-2.579,3.573-2.913,5.586-.921,5.573,3.435,10.832,10.356,12.507,1.697.41,3.448.578,5.176.519,4.079-.139,8.037-1.54,10.886-3.991l.576-.526c14.068-12.985,21.497-29.365,20.923-46.125Z"/>
    </g>
  </g>
</svg>